<?xml version="1.0" standalone="no"?>
<!DOCTYPE svg PUBLIC "-//W3C//DTD SVG 20010904//EN"
 "http://www.w3.org/TR/2001/REC-SVG-20010904/DTD/svg10.dtd">
<svg version="1.0" xmlns="http://www.w3.org/2000/svg"
 width="256.000000pt" height="256.000000pt" viewBox="0 0 256.000000 256.000000"
 preserveAspectRatio="xMidYMid meet">
<metadata>
Created by potrace 1.11, written by Peter Selinger 2001-2013
</metadata>
<g transform="translate(0.000000,256.000000) scale(0.100000,-0.100000)"
fill="#000000" stroke="none">
<path d="M1095 2483 c-40 -21 -84 -62 -101 -95 -17 -32 -18 -103 -3 -147 9
-26 8 -38 -7 -69 -13 -26 -19 -59 -19 -112 0 -64 5 -85 32 -141 18 -36 59 -95
93 -131 l60 -66 -34 -89 c-106 -278 -170 -582 -182 -859 -8 -194 -34 -280
-111 -365 -50 -55 -95 -76 -226 -104 -190 -42 -245 -63 -299 -115 -26 -26 -48
-52 -48 -58 0 -43 144 -67 353 -58 185 7 281 27 378 75 l77 39 6 -37 c13 -82
53 -101 211 -101 123 0 168 12 197 50 27 37 39 37 60 1 22 -39 67 -51 193 -51
163 0 200 19 214 107 4 28 17 65 28 84 29 47 67 160 84 244 23 113 18 411 -9
569 -35 201 -113 483 -173 624 l-19 44 61 66 c87 93 124 174 124 272 0 52 -6
88 -18 117 -15 32 -17 45 -8 61 16 30 14 118 -4 151 -21 42 -93 100 -132 107
-50 9 -80 -2 -133 -52 l-49 -46 -64 16 c-81 20 -173 20 -255 0 l-64 -16 -42
40 c-68 66 -111 77 -171 45z m277 -270 c77 -69 41 -197 -59 -209 -21 -3 -49 1
-63 8 -33 18 -70 75 -70 108 0 33 37 90 70 108 32 16 96 9 122 -15z m389 10
c31 -18 59 -67 59 -103 0 -59 -58 -120 -115 -120 -34 0 -80 24 -99 52 -18 26
-21 100 -5 129 15 28 69 59 102 59 16 0 42 -8 58 -17z"/>
<path d="M1311 2126 c-7 -8 -11 -25 -9 -38 2 -18 9 -23 32 -23 36 0 56 27 40
53 -14 22 -48 27 -63 8z"/>
<path d="M1628 2114 c-11 -23 -10 -29 11 -45 31 -25 61 -10 61 30 0 47 -53 57
-72 15z"/>
</g>
</svg>
